<?xml version="1.0" standalone="no"?>
<!DOCTYPE svg PUBLIC "-//W3C//DTD SVG 20010904//EN"
 "http://www.w3.org/TR/2001/REC-SVG-20010904/DTD/svg10.dtd">
<svg version="1.0" xmlns="http://www.w3.org/2000/svg"
 width="264.000000pt" height="264.000000pt" viewBox="0 0 264.000000 264.000000"
 preserveAspectRatio="xMidYMid meet">
<metadata>
Created by potrace 1.11, written by Peter Selinger 2001-2013
</metadata>
<g transform="translate(0.000000,264.000000) scale(0.100000,-0.100000)"
fill="#000000" stroke="none">
<path d="M1477 2544 l-229 -73 -153 54 c-84 30 -157 55 -162 55 -4 0 -18 -8
-31 -18 -22 -17 -20 -18 118 -56 77 -22 140 -42 140 -46 0 -3 -43 -19 -95 -34
l-95 -27 -36 25 c-30 20 -41 23 -63 14 -14 -5 -105 -39 -201 -74 -96 -36 -199
-81 -227 -100 -29 -18 -55 -34 -57 -34 -3 0 0 15 5 32 5 18 9 34 9 35 0 2 -15
3 -33 3 -29 0 -36 -5 -55 -45 l-22 -45 -78 39 c-68 34 -81 38 -105 27 l-28
-11 66 -45 c37 -24 69 -48 71 -52 3 -4 -19 -19 -48 -34 -29 -14 -54 -28 -56
-29 -2 -2 2 -14 10 -28 l13 -25 68 21 c37 11 70 17 74 13 6 -6 -114 -1006
-122 -1014 -2 -2 -20 11 -40 29 -36 32 -38 32 -51 14 -13 -17 -11 -22 17 -51
28 -29 30 -36 30 -106 0 -71 2 -76 29 -97 l30 -21 6 38 c10 63 19 69 48 36 14
-16 26 -32 26 -37 0 -4 8 -2 18 4 15 10 53 -16 265 -180 136 -105 271 -208
299 -229 29 -20 102 -77 163 -125 60 -49 126 -97 145 -107 19 -10 53 -34 75
-53 35 -31 38 -37 25 -52 -8 -10 -38 -31 -67 -47 -29 -16 -53 -34 -53 -38 0
-21 26 -21 70 0 54 25 81 22 73 -9 -3 -13 2 -23 15 -30 15 -8 24 -6 42 14 19
21 22 31 17 70 -6 42 -4 47 26 73 157 140 218 196 257 236 25 26 59 56 77 67
18 11 35 29 38 39 4 11 13 20 20 20 15 0 103 84 206 195 35 39 111 122 169
184 119 128 106 129 130 -2 10 -51 14 -57 36 -57 29 0 30 13 9 124 l-15 78 71
67 c40 36 78 70 86 74 12 8 12 12 -3 28 -16 18 -19 17 -79 -37 -53 -46 -64
-52 -69 -37 -11 39 -10 92 3 107 11 13 12 37 8 100 -5 67 -3 85 8 90 20 7 11
107 -31 374 -4 23 -12 36 -30 43 -22 8 -25 15 -23 47 3 56 1 62 -21 62 -15 0
-20 7 -20 26 0 22 3 24 23 19 22 -7 111 -53 257 -133 72 -40 110 -51 110 -33
0 4 -28 23 -62 40 -35 18 -81 42 -103 54 -80 45 -121 66 -179 93 l-60 27 49
43 c48 43 48 44 24 53 -19 7 -29 4 -47 -12 -30 -28 -38 -16 -46 74 -6 56 -11
69 -27 74 -30 10 -33 1 -20 -61 13 -69 14 -84 2 -84 -5 0 -42 15 -83 34 -110
50 -154 70 -253 110 -49 21 -108 46 -129 57 -22 11 -85 38 -140 61 -56 22
-105 44 -109 48 -9 8 2 12 229 77 118 33 134 40 132 58 -2 14 -11 20 -28 21
-14 0 -128 -32 -253 -72z m-138 -144 c37 -16 80 -34 96 -40 23 -9 26 -13 15
-20 -11 -7 -4 -19 33 -59 26 -28 47 -58 47 -68 0 -10 -15 -28 -33 -40 -36 -25
-57 -29 -57 -12 0 5 -4 8 -8 5 -18 -11 -71 57 -114 146 -26 54 -44 61 -54 21
-10 -38 -89 -139 -132 -168 -40 -28 -90 -33 -98 -11 -12 30 51 113 107 141 47
24 91 56 85 62 -5 6 -306 -150 -363 -189 -71 -48 -103 -95 -103 -151 0 -67 17
-93 106 -167 65 -53 75 -64 59 -70 -16 -6 -12 -11 26 -33 25 -15 50 -27 55
-27 16 0 194 -119 194 -129 0 -11 56 -41 76 -41 7 0 16 9 19 20 3 11 15 20 25
20 11 0 25 12 32 27 14 28 106 99 116 89 3 -3 10 4 16 16 10 19 50 51 156 125
74 51 161 128 179 159 31 51 27 102 -10 153 -17 24 -44 50 -60 59 -28 17 -38
32 -20 32 21 0 159 -62 239 -108 48 -27 95 -52 105 -55 9 -4 17 -10 17 -15 0
-7 -118 -119 -200 -189 -67 -57 -392 -298 -453 -336 -71 -44 -81 -48 -83 -27
-1 8 -2 21 -3 28 0 6 -8 12 -16 12 -11 0 -15 -11 -15 -37 0 -67 -9 -69 -96
-17 -93 54 -154 99 -285 209 -116 96 -282 215 -410 292 -115 69 -189 123 -189
139 0 6 28 19 63 29 34 9 125 36 202 60 77 24 221 66 320 94 99 28 212 61 250
75 39 13 76 25 83 25 8 1 44 -12 81 -29z m287 -167 c23 -21 58 -46 77 -57 38
-20 67 -67 67 -109 0 -18 -17 -40 -57 -78 -52 -47 -182 -139 -198 -139 -28 0
-147 -110 -196 -182 -27 -39 -47 -58 -60 -58 -37 0 -198 120 -262 194 -33 39
-72 78 -87 87 -32 20 -55 54 -64 96 -11 46 41 140 98 180 l44 31 6 -38 c5 -31
11 -40 37 -49 18 -6 42 -11 54 -11 31 0 173 87 180 110 3 10 12 24 21 31 12
10 23 2 69 -48 67 -74 101 -91 141 -69 65 35 77 51 77 100 -1 25 2 46 5 46 4
0 26 -17 48 -37z m477 -120 c16 -8 27 -17 24 -19 -3 -3 -27 6 -54 21 -49 26
-22 25 30 -2z m-1638 -86 c168 -100 234 -149 531 -391 60 -49 143 -108 184
-132 41 -24 89 -55 105 -68 l30 -24 -29 -24 c-17 -12 -36 -28 -44 -34 -12 -9
-12 -12 1 -22 11 -10 19 -8 37 8 13 11 27 20 32 20 16 0 6 -348 -14 -555 -11
-109 -20 -280 -21 -402 -1 -117 -3 -213 -5 -213 -2 0 -22 15 -45 34 -23 18
-62 42 -87 53 -25 12 -79 52 -121 91 -42 39 -129 107 -195 151 -129 88 -150
104 -424 320 -100 80 -184 150 -187 157 -6 16 23 309 46 469 34 225 53 376 62
485 5 58 11 115 14 128 l6 24 32 -20 c18 -11 59 -35 92 -55z m1679 -19 c2 -13
9 -79 16 -148 6 -69 22 -213 35 -320 13 -107 27 -229 30 -270 17 -207 18 -191
-7 -208 -41 -29 -120 -106 -161 -157 -60 -75 -245 -267 -302 -312 -27 -22
-108 -96 -180 -164 -192 -183 -245 -226 -256 -208 -16 26 -10 66 11 72 17 4
19 10 13 39 -12 60 -8 281 7 363 10 59 14 161 14 383 0 166 2 302 4 302 2 0
18 -11 37 -26 45 -34 56 -13 13 25 -18 17 -37 31 -41 31 -5 0 -5 4 -2 10 11
18 286 243 415 340 69 52 160 125 202 163 76 69 126 107 140 107 4 0 10 -10
12 -22z"/>
<path d="M515 2167 c-18 -14 -18 -15 1 -53 26 -52 63 -62 99 -27 14 15 25 37
25 53 0 23 -5 29 -31 34 -48 9 -73 7 -94 -7z"/>
<path d="M1255 2161 c-11 -11 -58 -41 -105 -66 -104 -57 -127 -78 -142 -127
-10 -34 -9 -41 15 -77 35 -53 143 -139 185 -147 48 -9 106 20 179 92 71 69 98
121 89 170 -6 28 -14 35 -72 60 -64 27 -104 65 -104 98 0 22 -21 20 -45 -3z"/>
<path d="M352 1939 c3 -8 24 -17 47 -22 49 -10 59 -27 43 -71 -11 -28 -10 -33
12 -49 24 -17 24 -18 8 -50 -9 -18 -22 -35 -29 -40 -7 -4 -15 -24 -19 -44 -6
-32 -4 -39 22 -60 24 -19 41 -23 102 -23 75 0 112 -11 112 -33 0 -12 -46 -62
-124 -137 -78 -74 -117 -205 -95 -323 23 -131 36 -165 92 -234 66 -83 83 -98
129 -117 67 -28 156 -31 228 -6 156 54 239 119 276 216 27 70 27 248 -1 319
-34 90 -59 120 -140 168 -107 63 -213 74 -297 31 -39 -20 -43 -14 -19 27 23
40 21 87 -5 106 -18 13 -30 17 -144 46 -47 12 -55 17 -58 40 -2 14 6 44 18 68
23 44 22 102 -2 155 -12 27 -20 30 -102 39 -46 5 -57 4 -54 -6z m318 -496 c0
-5 -14 -21 -31 -38 -40 -38 -97 -157 -105 -219 -11 -78 -28 -69 -21 12 7 88
35 154 90 210 37 38 67 54 67 35z m330 -97 c15 -7 39 -38 62 -81 61 -115 49
-197 -47 -309 -67 -78 -130 -109 -236 -114 -104 -5 -124 5 -169 83 -16 29 -30
55 -30 58 0 3 14 1 31 -5 49 -17 186 -4 239 22 60 29 110 102 122 176 11 73
-6 112 -65 150 -26 16 -46 32 -47 36 0 10 111 -3 140 -16z m-122 -65 c2 -14 1
-49 -3 -80 -6 -46 -13 -62 -45 -94 -38 -37 -40 -38 -92 -31 -56 6 -88 30 -88
65 0 15 5 17 30 13 26 -6 30 -3 30 14 0 37 40 131 58 135 9 3 37 4 62 4 40 -2
45 -5 48 -26z"/>
<path d="M1064 583 c-16 -3 -24 -17 -34 -58 -11 -47 -11 -57 3 -78 33 -51 112
-38 137 22 11 27 9 34 -17 73 -28 42 -46 50 -89 41z"/>
<path d="M2070 1941 c0 -13 -11 -26 -30 -36 -16 -9 -30 -21 -30 -29 0 -19 33
-46 56 -46 37 0 45 14 42 71 -2 42 -7 55 -20 57 -13 2 -18 -3 -18 -17z"/>
<path d="M1947 1775 c-40 -40 6 -125 68 -125 36 0 50 12 60 51 14 57 -87 115
-128 74z"/>
<path d="M1700 1569 c-148 -81 -250 -242 -250 -392 0 -117 73 -210 175 -222
126 -16 167 6 259 137 9 12 19 19 23 15 8 -9 -52 -124 -114 -219 -46 -70 -48
-88 -9 -88 59 0 130 80 219 245 71 131 80 165 72 279 -7 103 -26 156 -75 204
-52 53 -100 72 -177 72 -57 0 -77 -5 -123 -31z m190 -60 c11 -7 4 -8 -25 -3
-50 8 -58 14 -19 14 16 0 36 -5 44 -11z m0 -45 c58 -23 75 -60 74 -159 0 -81
-17 -155 -36 -155 -6 0 -8 10 -4 25 10 41 -21 131 -55 160 -55 45 -153 31
-189 -27 -26 -43 -25 -70 4 -97 36 -34 66 -25 84 26 28 76 92 65 92 -16 0 -55
-29 -102 -79 -128 -86 -45 -198 -21 -237 53 -16 28 -16 38 -5 76 7 24 21 59
31 78 26 50 128 150 147 143 8 -3 18 0 23 7 7 11 55 27 92 29 10 1 36 -6 58
-15z"/>
<path d="M1464 866 c-8 -20 20 -69 61 -111 19 -19 35 -37 35 -40 0 -3 -19 -5
-41 -5 -44 0 -103 29 -113 55 -3 8 -12 15 -21 15 -13 0 -11 -8 10 -37 14 -21
25 -42 25 -46 0 -5 9 -21 21 -35 l21 -27 -34 -8 -33 -9 28 -20 c37 -27 35 -48
-4 -48 -27 0 -30 -2 -19 -16 11 -12 9 -26 -9 -80 -19 -52 -21 -67 -11 -79 19
-23 37 -18 49 13 14 32 32 64 49 85 7 8 11 20 10 27 -2 7 15 18 37 25 22 7 36
14 30 14 -5 1 -2 6 8 12 27 16 20 37 -21 63 -35 22 -71 56 -59 56 2 0 21 -7
40 -15 20 -8 48 -15 62 -15 29 0 77 44 69 64 -3 8 -29 25 -58 39 -54 27 -84
53 -72 64 3 3 14 -1 24 -10 10 -10 24 -17 30 -17 16 0 15 42 -2 65 -11 15 -17
17 -28 7 -12 -10 -19 -8 -33 8 -21 23 -43 26 -51 6z"/>
</g>
</svg>
